<svg xmlns="http://www.w3.org/2000/svg" viewBox="0 0 400 300" width="100%" height="100%">
  <defs>
    <!-- Linear Gradients -->
    <linearGradient id="bgGrad" x1="0%" y1="0%" x2="100%" y2="100%">
      <stop offset="0%" stop-color="#0f172a" />
      <stop offset="100%" stop-color="#1e1b4b" />
    </linearGradient>
    <linearGradient id="primaryGrad" x1="0%" y1="0%" x2="100%" y2="100%">
      <stop offset="0%" stop-color="#3b82f6" />
      <stop offset="100%" stop-color="#6366f1" />
    </linearGradient>
    <linearGradient id="accentGrad" x1="0%" y1="0%" x2="100%" y2="100%">
      <stop offset="0%" stop-color="#f59e0b" />
      <stop offset="100%" stop-color="#d97706" />
    </linearGradient>
    <linearGradient id="emeraldGrad" x1="0%" y1="0%" x2="100%" y2="100%">
      <stop offset="0%" stop-color="#10b981" />
      <stop offset="100%" stop-color="#059669" />
    </linearGradient>
    <linearGradient id="roseGrad" x1="0%" y1="0%" x2="100%" y2="100%">
      <stop offset="0%" stop-color="#f43f5e" />
      <stop offset="100%" stop-color="#e11d48" />
    </linearGradient>
    <linearGradient id="purpleGrad" x1="0%" y1="0%" x2="100%" y2="100%">
      <stop offset="0%" stop-color="#a855f7" />
      <stop offset="100%" stop-color="#7e22ce" />
    </linearGradient>
    <linearGradient id="cyanGrad" x1="0%" y1="0%" x2="100%" y2="100%">
      <stop offset="0%" stop-color="#06b6d4" />
      <stop offset="100%" stop-color="#0284c7" />
    </linearGradient>
    <linearGradient id="glassGrad" x1="0%" y1="0%" x2="100%" y2="100%">
      <stop offset="0%" stop-color="rgba(255, 255, 255, 0.15)" />
      <stop offset="100%" stop-color="rgba(255, 255, 255, 0.05)" />
    </linearGradient>
    
    <!-- Filters for 3D Glow & Shadow -->
    <filter id="glow" x="-20%" y="-20%" width="140%" height="140%">
      <feGaussianBlur stdDeviation="6" result="blur" />
      <feComposite in="SourceGraphic" in2="blur" operator="over" />
    </filter>
    <filter id="shadow" x="-10%" y="-10%" width="120%" height="120%">
      <feDropShadow dx="0" dy="8" stdDeviation="6" flood-color="#000" flood-opacity="0.35" />
    </filter>
    <filter id="softShadow" x="-10%" y="-10%" width="120%" height="120%">
      <feDropShadow dx="0" dy="4" stdDeviation="3" flood-color="#000" flood-opacity="0.2" />
    </filter>
  </defs>

  <!-- Card Background -->
  <rect width="400" height="300" rx="24" fill="url(#bgGrad)" />
  
  <!-- Subtle Grid Lines -->
  <g opacity="0.05" stroke="#ffffff" stroke-width="1">
    <line x1="0" y1="50" x2="400" y2="50" />
    <line x1="0" y1="100" x2="400" y2="100" />
    <line x1="0" y1="150" x2="400" y2="150" />
    <line x1="0" y1="200" x2="400" y2="200" />
    <line x1="0" y1="250" x2="400" y2="250" />
    <line x1="100" y1="0" x2="100" y2="300" />
    <line x1="200" y1="0" x2="200" y2="300" />
    <line x1="300" y1="0" x2="300" y2="300" />
  </g>

  
  <text x="200" y="32" fill="#f8fafc" font-family="Arial, sans-serif" font-weight="bold" font-size="15" text-anchor="middle">
    Kombinasi 2 Sifat Beda (Bentuk &amp; Warna Biji)
  </text>

  <g transform="translate(20, 55)">
    <!-- Trait 1: Shape -->
    <g transform="translate(0, 0)" filter="url(#shadow)">
      <rect x="0" y="0" width="170" height="210" rx="16" fill="#1e293b" stroke="#3b82f6" stroke-width="2" />
      <rect x="15" y="15" width="140" height="28" rx="8" fill="url(#primaryGrad)" />
      <text x="85" y="33" fill="#fff" font-family="Arial, sans-serif" font-weight="bold" font-size="11" text-anchor="middle">SIFAT 1: BENTUK BIJI</text>
      
      <!-- Dominant -->
      <circle cx="45" cy="85" r="18" fill="#f59e0b" />
      <text x="75" y="82" fill="#f8fafc" font-family="Arial, sans-serif" font-weight="bold" font-size="12">Bulat (B)</text>
      <text x="75" y="96" fill="#94a3b8" font-family="Arial, sans-serif" font-size="10">Dominan</text>

      <line x1="20" y1="120" x2="150" y2="120" stroke="#334155" />

      <!-- Recessive -->
      <path d="M 45 140 C 35 150 55 160 35 170 C 55 180 35 190 45 195" fill="none" stroke="#f59e0b" stroke-width="4" />
      <text x="75" y="157" fill="#f8fafc" font-family="Arial, sans-serif" font-weight="bold" font-size="12">Keriput (b)</text>
      <text x="75" y="171" fill="#94a3b8" font-family="Arial, sans-serif" font-size="10">Resesif</text>
    </g>

    <!-- Trait 2: Color -->
    <g transform="translate(190, 0)" filter="url(#shadow)">
      <rect x="0" y="0" width="170" height="210" rx="16" fill="#1e293b" stroke="#10b981" stroke-width="2" />
      <rect x="15" y="15" width="140" height="28" rx="8" fill="url(#emeraldGrad)" />
      <text x="85" y="33" fill="#fff" font-family="Arial, sans-serif" font-weight="bold" font-size="11" text-anchor="middle">SIFAT 2: WARNA BIJI</text>

      <!-- Dominant -->
      <circle cx="45" cy="85" r="18" fill="#fbbf24" />
      <text x="75" y="82" fill="#f8fafc" font-family="Arial, sans-serif" font-weight="bold" font-size="12">Kuning (K)</text>
      <text x="75" y="96" fill="#94a3b8" font-family="Arial, sans-serif" font-size="10">Dominan</text>

      <line x1="20" y1="120" x2="150" y2="120" stroke="#334155" />

      <!-- Recessive -->
      <circle cx="45" cy="160" r="18" fill="#10b981" />
      <text x="75" y="157" fill="#f8fafc" font-family="Arial, sans-serif" font-weight="bold" font-size="12">Hijau (k)</text>
      <text x="75" y="171" fill="#94a3b8" font-family="Arial, sans-serif" font-size="10">Resesif</text>
    </g>
  </g>

</svg>